<?xml version="1.0" encoding="UTF-8"?>
<svg id="Calque_2" data-name="Calque 2" xmlns="http://www.w3.org/2000/svg" viewBox="0 0 240.09 126.33">
  <defs>
    <style>
      .cls-1 {
        fill: #cfef4f;
      }
    </style>
  </defs>
  <g id="Calque_5" data-name="Calque 5">
    <g>
      <g>
        <path class="cls-1" d="m18.03,40.33c-3.53,0-6.44-.56-8.74-1.68-2.29-1.12-4.01-2.6-5.16-4.43s-1.75-3.77-1.81-5.83c0-.34.1-.62.31-.87.21-.24.45-.36.74-.36h9.07c.51,0,.9.08,1.17.25.27.17.56.4.88.7.32.26.65.5.98.7.33.21.72.36,1.15.45s.9.14,1.41.14c1.08,0,1.95-.14,2.6-.42s.98-.66.98-1.15c0-.45-.18-.82-.55-1.12-.37-.3-.99-.57-1.89-.81-.89-.24-2.13-.48-3.72-.7-2.51-.41-4.69-1.1-6.54-2.07-1.84-.97-3.27-2.31-4.27-4.01-1-1.7-1.5-3.78-1.5-6.25s.61-4.78,1.84-6.72c1.22-1.94,2.93-3.45,5.11-4.54,2.18-1.08,4.72-1.62,7.61-1.62,2.39,0,4.5.37,6.35,1.09,1.84.73,3.4,1.68,4.68,2.86,1.27,1.18,2.24,2.44,2.91,3.78s1.02,2.63,1.05,3.86c0,.34-.1.63-.31.87-.21.24-.44.36-.69.36h-9.55c-.45,0-.8-.07-1.07-.22-.27-.15-.55-.37-.84-.67-.16-.19-.45-.4-.88-.64-.43-.24-.98-.36-1.65-.36-.8,0-1.38.14-1.74.42-.37.28-.55.66-.55,1.15,0,.34.14.66.43.95.29.3.81.56,1.58.78.76.22,1.86.45,3.29.67,3.18.45,5.74,1.17,7.66,2.16,1.93.99,3.32,2.31,4.2,3.95.87,1.64,1.31,3.68,1.31,6.11,0,2.73-.69,5.08-2.08,7.06-1.38,1.98-3.27,3.5-5.66,4.56-2.39,1.06-5.09,1.6-8.11,1.6Z"/>
        <path class="cls-1" d="m46.05,39.77c-.35,0-.65-.15-.91-.45-.26-.3-.38-.65-.38-1.06V12.6h-7.92c-.35,0-.65-.15-.91-.45-.26-.3-.38-.65-.38-1.07V2.07c0-.41.13-.76.38-1.06.25-.3.56-.45.91-.45h27.97c.35,0,.65.15.91.45s.38.65.38,1.06v9.02c0,.41-.13.77-.38,1.07s-.56.45-.91.45h-7.92v25.65c0,.41-.13.77-.38,1.06-.25.3-.56.45-.91.45h-9.55Z"/>
        <path class="cls-1" d="m70.82,39.77c-.35,0-.65-.15-.91-.45-.25-.3-.38-.65-.38-1.06V2.07c0-.41.13-.76.38-1.06s.56-.45.91-.45h14.13c4.58,0,8.16,1.21,10.74,3.64,2.58,2.43,3.87,5.75,3.87,9.97,0,2.5-.49,4.68-1.46,6.53s-2.2,3.33-3.7,4.45l5.87,12.77c.09.22.14.43.14.62,0,.34-.1.62-.31.87-.21.24-.45.36-.74.36h-9.78c-.64,0-1.11-.19-1.43-.56-.32-.37-.53-.69-.62-.95l-4.11-10.7h-1.96v10.7c0,.41-.13.77-.38,1.06-.25.3-.56.45-.91.45h-9.36Zm10.64-22.85h3.49c.73,0,1.28-.29,1.65-.87.37-.58.55-1.24.55-1.99s-.17-1.45-.5-2.1c-.33-.65-.9-.98-1.69-.98h-3.49v5.94Z"/>
        <path class="cls-1" d="m105.28,39.77c-.35,0-.65-.15-.91-.45-.25-.3-.38-.65-.38-1.06V2.07c0-.41.13-.76.38-1.06s.56-.45.91-.45h24.49c.35,0,.65.15.91.45.25.3.38.65.38,1.06v7.9c0,.41-.13.77-.38,1.07-.26.3-.56.45-.91.45h-14.32v3.53h13.27c.35,0,.65.15.91.45.25.3.38.65.38,1.07v7.28c0,.41-.13.77-.38,1.07-.26.3-.56.45-.91.45h-13.27v3.53h14.7c.35,0,.65.15.91.45.25.3.38.66.38,1.07v7.9c0,.41-.13.77-.38,1.06-.26.3-.56.45-.91.45h-24.87Z"/>
        <path class="cls-1" d="m137.12,39.77c-.35,0-.65-.15-.91-.45-.25-.3-.38-.65-.38-1.06V2.07c0-.41.13-.76.38-1.06s.56-.45.91-.45h24.49c.35,0,.65.15.91.45.25.3.38.65.38,1.06v7.9c0,.41-.13.77-.38,1.07-.26.3-.56.45-.91.45h-14.32v3.53h13.27c.35,0,.65.15.91.45.25.3.38.65.38,1.07v7.28c0,.41-.13.77-.38,1.07-.26.3-.56.45-.91.45h-13.27v3.53h14.7c.35,0,.65.15.91.45.25.3.38.66.38,1.07v7.9c0,.41-.13.77-.38,1.06-.26.3-.56.45-.91.45h-24.87Z"/>
        <path class="cls-1" d="m176.36,39.77c-.35,0-.65-.15-.91-.45-.26-.3-.38-.65-.38-1.06V12.6h-7.92c-.35,0-.65-.15-.91-.45-.26-.3-.38-.65-.38-1.07V2.07c0-.41.13-.76.38-1.06.25-.3.56-.45.91-.45h27.97c.35,0,.65.15.91.45s.38.65.38,1.06v9.02c0,.41-.13.77-.38,1.07s-.56.45-.91.45h-7.92v25.65c0,.41-.13.77-.38,1.06-.25.3-.56.45-.91.45h-9.55Z"/>
      </g>
      <g>
        <path class="cls-1" d="m15.7,82.33c-1.97,0-3.86-.3-5.66-.9-1.8-.6-3.4-1.48-4.82-2.66-1.42-1.18-2.54-2.61-3.36-4.31-.83-1.7-1.26-3.65-1.29-5.85,0-.34.1-.62.31-.87.21-.24.45-.37.74-.37h9.74c.54,0,.95.14,1.22.42.27.28.52.74.74,1.37.22.49.45.9.67,1.23.22.34.5.59.84.76.33.17.75.25,1.26.25.86,0,1.54-.33,2.05-.98.51-.65.76-1.84.76-3.56v-12.94H4.72c-.35,0-.65-.15-.91-.45-.26-.3-.38-.65-.38-1.06v-8.35c0-.41.13-.76.38-1.06.25-.3.56-.45.91-.45h25.25c.35,0,.65.15.91.45.25.3.38.65.38,1.06v23.24c0,3.44-.69,6.26-2.08,8.49-1.39,2.22-3.25,3.86-5.61,4.93s-4.98,1.6-7.88,1.6Z"/>
        <path class="cls-1" d="m34.65,81.77c-.29,0-.53-.12-.74-.36-.21-.24-.31-.53-.31-.87,0-.15.02-.28.05-.39l10.64-35.73c.1-.41.32-.82.67-1.23.35-.41.84-.62,1.48-.62h10.36c.64,0,1.13.21,1.48.62.35.41.57.82.67,1.23l10.65,35.73c.03.11.05.24.05.39,0,.34-.1.62-.31.87-.21.24-.45.36-.74.36h-8.83c-.61,0-1.04-.16-1.31-.48-.27-.32-.45-.62-.55-.92l-1.14-3.7h-10.26l-1.15,3.7c-.1.3-.27.61-.53.92s-.7.48-1.34.48h-8.83Zm14.27-16.02h5.39l-2.72-10.42-2.67,10.42Z"/>
        <path class="cls-1" d="m73.55,81.77c-.35,0-.65-.15-.91-.45-.25-.3-.38-.65-.38-1.06v-36.18c0-.41.13-.76.38-1.06s.56-.45.91-.45h7.54c.64,0,1.11.21,1.43.62.32.41.53.71.62.9l6.92,13.44,6.92-13.44c.1-.19.3-.49.62-.9.32-.41.8-.62,1.43-.62h7.54c.35,0,.65.15.91.45.25.3.38.65.38,1.06v36.18c0,.41-.13.77-.38,1.06-.26.3-.56.45-.91.45h-8.64c-.35,0-.65-.15-.91-.45-.25-.3-.38-.65-.38-1.06v-15.35l-3.15,6.05c-.16.3-.37.61-.64.92-.27.32-.64.48-1.12.48h-3.34c-.48,0-.85-.16-1.12-.48-.27-.32-.49-.62-.64-.92l-3.15-6.05v15.35c0,.41-.13.77-.38,1.06-.26.3-.56.45-.91.45h-8.64Z"/>
      </g>
      <g>
        <path class="cls-1" d="m1.29,125.77c-.35,0-.65-.15-.91-.45-.25-.3-.38-.65-.38-1.06v-36.18c0-.41.13-.76.38-1.06s.56-.45.91-.45h24.06c.35,0,.65.15.91.45s.38.65.38,1.06v8.51c0,.41-.13.77-.38,1.06-.25.3-.56.45-.91.45h-13.65v4.14h12.7c.35,0,.65.15.91.45.25.3.38.66.38,1.07v8.46c0,.41-.13.77-.38,1.06-.25.3-.56.45-.91.45h-12.7v10.53c0,.41-.13.77-.38,1.06-.26.3-.56.45-.91.45H1.29Z"/>
        <path class="cls-1" d="m32.12,125.77c-.35,0-.65-.15-.91-.45-.25-.3-.38-.65-.38-1.06v-36.18c0-.41.13-.76.38-1.06s.56-.45.91-.45h24.49c.35,0,.65.15.91.45.25.3.38.65.38,1.06v7.9c0,.41-.13.77-.38,1.07-.26.3-.56.45-.91.45h-14.32v3.53h13.27c.35,0,.65.15.91.45.25.3.38.65.38,1.07v7.28c0,.41-.13.77-.38,1.07-.26.3-.56.45-.91.45h-13.27v3.53h14.7c.35,0,.65.15.91.45.25.3.38.66.38,1.07v7.9c0,.41-.13.77-.38,1.06-.26.3-.56.45-.91.45h-24.87Z"/>
        <path class="cls-1" d="m76.61,126.33c-3.53,0-6.44-.56-8.74-1.68-2.29-1.12-4.01-2.6-5.16-4.43s-1.75-3.77-1.81-5.83c0-.34.1-.62.31-.87.21-.24.45-.36.74-.36h9.07c.51,0,.9.08,1.17.25.27.17.56.4.88.7.32.26.65.5.98.7.33.21.72.36,1.15.45s.9.14,1.41.14c1.08,0,1.95-.14,2.6-.42s.98-.66.98-1.15c0-.45-.18-.82-.55-1.12-.37-.3-.99-.57-1.89-.81-.89-.24-2.13-.48-3.72-.7-2.51-.41-4.69-1.1-6.54-2.07-1.84-.97-3.27-2.31-4.27-4.01-1-1.7-1.5-3.78-1.5-6.25s.61-4.78,1.84-6.72c1.22-1.94,2.93-3.45,5.11-4.54,2.18-1.08,4.72-1.62,7.61-1.62,2.39,0,4.5.37,6.35,1.09,1.84.73,3.4,1.68,4.68,2.86,1.27,1.18,2.24,2.44,2.91,3.78s1.02,2.63,1.05,3.86c0,.34-.1.63-.31.87-.21.24-.44.36-.69.36h-9.55c-.45,0-.8-.07-1.07-.22-.27-.15-.55-.37-.84-.67-.16-.19-.45-.4-.88-.64-.43-.24-.98-.36-1.65-.36-.8,0-1.38.14-1.74.42-.37.28-.55.66-.55,1.15,0,.34.14.66.43.95.29.3.81.56,1.58.78.76.22,1.86.45,3.29.67,3.18.45,5.74,1.17,7.66,2.16,1.93.99,3.32,2.31,4.2,3.95.87,1.64,1.31,3.68,1.31,6.11,0,2.73-.69,5.08-2.08,7.06-1.38,1.98-3.27,3.5-5.66,4.56-2.39,1.06-5.09,1.6-8.11,1.6Z"/>
        <path class="cls-1" d="m104.63,125.77c-.35,0-.65-.15-.91-.45-.26-.3-.38-.65-.38-1.06v-25.65h-7.92c-.35,0-.65-.15-.91-.45-.26-.3-.38-.65-.38-1.07v-9.02c0-.41.13-.76.38-1.06.25-.3.56-.45.91-.45h27.97c.35,0,.65.15.91.45s.38.65.38,1.06v9.02c0,.41-.13.77-.38,1.07s-.56.45-.91.45h-7.92v25.65c0,.41-.13.77-.38,1.06-.25.3-.56.45-.91.45h-9.55Z"/>
        <path class="cls-1" d="m129.4,125.77c-.35,0-.65-.15-.91-.45-.25-.3-.38-.65-.38-1.06v-36.18c0-.41.13-.76.38-1.06s.56-.45.91-.45h9.74c.35,0,.65.15.91.45s.38.65.38,1.06v36.18c0,.41-.13.77-.38,1.06-.25.3-.56.45-.91.45h-9.74Z"/>
        <path class="cls-1" d="m154.94,125.77c-.64,0-1.13-.21-1.48-.62-.35-.41-.57-.82-.67-1.23l-8.97-35.73c-.03-.15-.05-.28-.05-.39,0-.34.1-.62.31-.87.21-.24.45-.36.74-.36h8.88c.64,0,1.13.21,1.48.62.35.41.57.82.67,1.23l4.53,20.84,4.53-20.84c.1-.41.32-.82.67-1.23.35-.41.84-.62,1.48-.62h8.88c.29,0,.53.12.74.36.21.24.31.53.31.87,0,.11-.02.24-.05.39l-8.97,35.73c-.1.41-.32.82-.67,1.23-.35.41-.84.62-1.48.62h-10.88Z"/>
        <path class="cls-1" d="m175.85,125.77c-.29,0-.53-.12-.74-.36-.21-.24-.31-.53-.31-.87,0-.15.02-.28.05-.39l10.64-35.73c.1-.41.32-.82.67-1.23.35-.41.84-.62,1.48-.62h10.36c.64,0,1.13.21,1.48.62.35.41.57.82.67,1.23l10.65,35.73c.03.11.05.24.05.39,0,.34-.1.62-.31.87-.21.24-.45.36-.74.36h-8.83c-.61,0-1.04-.16-1.31-.48-.27-.32-.45-.62-.55-.92l-1.14-3.7h-10.26l-1.15,3.7c-.1.3-.27.61-.53.92s-.7.48-1.34.48h-8.83Zm14.27-16.02h5.39l-2.72-10.42-2.67,10.42Z"/>
        <path class="cls-1" d="m214.75,125.77c-.35,0-.65-.15-.91-.45-.25-.3-.38-.65-.38-1.06v-36.18c0-.41.13-.76.38-1.06s.56-.45.91-.45h9.55c.35,0,.65.15.91.45.25.3.38.65.38,1.06v26.21h13.22c.35,0,.65.15.91.45.25.3.38.65.38,1.06v8.46c0,.41-.13.77-.38,1.06-.25.3-.56.45-.91.45h-24.06Z"/>
      </g>
    </g>
  </g>
</svg>