<?xml version="1.0" encoding="UTF-8"?>
<svg id="Calque_2" data-name="Calque 2" xmlns="http://www.w3.org/2000/svg" viewBox="0 0 320.79 182.35">
  <defs>
    <style>
      .cls-1 {
        fill: #cfef4f;
      }
    </style>
  </defs>
  <g id="Calque_5" data-name="Calque 5">
    <g>
      <g>
        <path class="cls-1" d="m28.52,0c3.96,0,7.48.63,10.56,1.89,3.08,1.26,5.77,3.18,8.09,5.75l-5.63,9.72c-1.9-1.88-3.91-3.35-6.04-4.41-2.13-1.06-4.48-1.6-7.05-1.6-1.31,0-2.36.15-3.16.45s-1.38.7-1.74,1.22c-.36.52-.54,1.1-.54,1.74,0,.79.41,1.43,1.23,1.93.82.49,1.97.94,3.45,1.33l6.32,1.71c4.21,1.14,7.35,2.81,9.42,5.01,2.06,2.2,3.1,5.21,3.1,9.01s-.79,6.8-2.37,9.27c-1.58,2.47-3.74,4.33-6.48,5.56-2.74,1.24-5.84,1.85-9.29,1.85-2.74,0-5.41-.32-8-.96s-4.96-1.57-7.11-2.78c-2.15-1.21-4-2.66-5.56-4.34l5.56-10.01c1.14,1.29,2.53,2.44,4.17,3.45,1.64,1.01,3.39,1.82,5.25,2.41,1.85.59,3.65.89,5.37.89,1.22,0,2.22-.13,3-.41.78-.27,1.34-.65,1.68-1.15.34-.49.51-1.09.51-1.78,0-.84-.28-1.52-.82-2.04-.55-.52-1.58-.98-3.1-1.37l-6.95-1.85c-2.28-.59-4.38-1.41-6.32-2.45-1.94-1.04-3.49-2.48-4.65-4.34s-1.74-4.29-1.74-7.31c0-3.21.74-6.06,2.21-8.53,1.48-2.47,3.62-4.4,6.45-5.79,2.82-1.38,6.22-2.08,10.18-2.08Z"/>
        <path class="cls-1" d="m88.84.74v11.35h-13.28v37.61h-12.9V12.09h-13.4V.74h39.58Z"/>
        <path class="cls-1" d="m115.52.74c5.18,0,9.2,1.4,12.04,4.19,2.85,2.79,4.27,6.52,4.27,11.17,0,5.19-1.39,9.12-4.17,11.8-2.78,2.67-6.79,4.01-12.01,4.01l-1.27.82h-7.59v16.99h-12.65V.74h21.37Zm-2.09,21.66c1.81,0,3.17-.41,4.08-1.22s1.36-2.16,1.36-4.04-.45-3.24-1.36-4.08c-.91-.84-2.27-1.26-4.08-1.26h-6.64v10.61h6.64Zm7.65,3.19l13.15,24.11h-14.1l-10.18-21.44,11.13-2.67Z"/>
        <path class="cls-1" d="m138.28,49.7V.74h33.64v11.35h-20.74v7.94h16.57v10.53h-16.57v7.79h21.56v11.35h-34.46Z"/>
        <path class="cls-1" d="m177.98,49.7V.74h33.64v11.35h-20.74v7.94h16.57v10.53h-16.57v7.79h21.56v11.35h-34.46Z"/>
        <path class="cls-1" d="m254.79.74v11.35h-13.28v37.61h-12.9V12.09h-13.4V.74h39.58Z"/>
      </g>
      <g>
        <path class="cls-1" d="m40.72,61.4v31.36c0,6.79-1.71,12.09-5.12,15.88-3.41,3.79-8.3,5.69-14.68,5.69-4.67,0-8.43-.97-11.27-2.92-2.85-1.95-4.79-4.63-5.82-8.06-1.03-3.42-1.26-7.32-.67-11.69l13.53-2.69c-.54,4.85-.39,8.23.44,10.15.83,1.92,2.3,2.88,4.41,2.88,1.93,0,3.32-.86,4.17-2.57.85-1.71,1.28-4.41,1.28-8.1v-29.94h13.73Z"/>
        <path class="cls-1" d="m88.51,113.53h-14.14l-2.49-10.82h-13.53l-2.56,10.82h-13.73l14.95-52.14h16.49l15.01,52.14Zm-27.87-21.25h9.02l-4.51-19.43-4.51,19.43Z"/>
        <path class="cls-1" d="m146.88,61.4v52.14h-12.12v-20.85l.27-16.83h-.13l-9.76,37.68h-11.04l-9.63-37.68h-.2l.27,16.83v20.85h-12.12v-52.14h19.39l5.99,24.72,2.22,10.35h.13l2.22-10.35,5.99-24.72h18.51Z"/>
      </g>
      <g>
        <path class="cls-1" d="m36.24,140.96H13.92v9.21h17.88v12.25H13.92v19.14H0v-52.85h36.24v12.25Z"/>
        <path class="cls-1" d="m41.83,181.55v-52.85h36.31v12.25h-22.38v8.57h17.88v11.37h-17.88v8.41h23.27v12.25h-37.19Z"/>
        <path class="cls-1" d="m103.38,127.9c4.28,0,8.07.68,11.4,2.04,3.32,1.36,6.23,3.43,8.73,6.2l-6.07,10.49c-2.05-2.03-4.22-3.62-6.52-4.76-2.3-1.15-4.83-1.72-7.61-1.72-1.41,0-2.55.16-3.41.48s-1.49.76-1.87,1.32c-.39.56-.58,1.19-.58,1.88,0,.85.44,1.55,1.33,2.08.89.53,2.13,1.01,3.72,1.44l6.82,1.84c4.55,1.23,7.94,3.03,10.17,5.41,2.23,2.38,3.34,5.62,3.34,9.73s-.85,7.34-2.56,10.01c-1.71,2.67-4.04,4.67-6.99,6.01-2.96,1.33-6.3,2-10.03,2-2.96,0-5.84-.35-8.63-1.04s-5.36-1.69-7.68-3c-2.32-1.31-4.32-2.87-6.01-4.68l6.01-10.81c1.23,1.39,2.73,2.63,4.5,3.72,1.78,1.09,3.66,1.96,5.66,2.6,2,.64,3.94.96,5.8.96,1.32,0,2.4-.15,3.24-.44.84-.29,1.44-.71,1.81-1.24.36-.53.55-1.17.55-1.92,0-.91-.3-1.64-.89-2.2-.59-.56-1.71-1.05-3.34-1.48l-7.5-2c-2.46-.64-4.73-1.52-6.82-2.64-2.09-1.12-3.77-2.68-5.02-4.68s-1.87-4.63-1.87-7.89c0-3.47.79-6.54,2.39-9.21,1.59-2.67,3.91-4.75,6.96-6.25,3.05-1.49,6.71-2.24,10.99-2.24Z"/>
        <path class="cls-1" d="m168.48,128.7v12.25h-14.33v40.6h-13.92v-40.6h-14.47v-12.25h42.72Z"/>
        <path class="cls-1" d="m188.13,128.7v52.85h-13.92v-52.85h13.92Z"/>
        <path class="cls-1" d="m239.86,128.7l-15.56,52.85h-16.51l-15.56-52.85h14.53l7.23,30.35,2.32,10.33,2.18-10.17,7.3-30.51h14.06Z"/>
        <path class="cls-1" d="m281.49,181.55h-14.33l-2.52-10.97h-13.72l-2.59,10.97h-13.92l15.15-52.85h16.72l15.22,52.85Zm-28.25-21.54h9.15l-4.57-19.7-4.57,19.7Z"/>
        <path class="cls-1" d="m299.36,169.3h21.43v12.25h-35.35v-52.85h13.92v40.6Z"/>
      </g>
    </g>
  </g>
</svg>